<svg width="142" height="40" viewBox="0 0 142 40" fill="none" xmlns="http://www.w3.org/2000/svg">
    <path fill-rule="evenodd" clip-rule="evenodd"
        d="M131.124 13.6906C133.331 13.6145 135.44 12.2414 136.38 10.2701C136.852 9.28005 137.018 8.04527 136.411 7.12864C135.801 6.2072 134.613 5.86975 133.517 5.66142C132.68 5.50167 131.835 5.37706 130.987 5.28631C130.748 5.26111 130.488 5.243 130.288 5.37447C129.98 5.57661 129.972 6.01255 129.998 6.37786C130.159 8.6322 130.319 10.8872 130.48 13.1416C130.489 13.2842 130.504 13.437 130.599 13.5444C130.723 13.6843 130.936 13.6968 131.124 13.6906ZM131.102 17.8294C130.925 17.7734 130.733 17.7192 130.559 17.7846C130.253 17.9007 130.198 18.2985 130.193 18.6226C130.113 23.4756 130.033 28.3286 129.953 33.1822C129.948 33.4704 129.951 33.7844 130.132 34.012C130.44 34.3999 131.051 34.3129 131.525 34.1618C133.625 33.4918 135.543 32.2734 137.031 30.6649C138.211 29.3896 139.144 27.8006 139.24 26.075C139.353 24.0092 138.23 22.0134 136.656 20.6458C135.082 19.279 133.099 18.4597 131.102 17.8294ZM136.99 4.78796C138.663 6.48886 138.771 9.3106 137.654 11.4097C136.538 13.5082 134.419 14.9428 132.17 15.773C135.385 17.0207 138.655 18.86 140.098 21.958C141.554 25.0813 140.738 28.9551 138.548 31.6268C136.357 34.2979 132.986 35.8511 129.546 36.396C128.362 36.5835 127.65 36.5995 126.869 35.6995C126.258 34.9951 126.245 33.9769 126.263 33.0502C126.44 23.9352 126.619 14.8203 126.796 5.70596C126.819 4.5616 126.984 3.18574 128.031 2.69403C128.4 2.52075 128.819 2.49552 129.228 2.48639C130.746 2.45319 131.58 2.58846 133.062 2.91205C134.502 3.22678 135.962 3.74325 136.99 4.78796Z"
        fill="#007398" />
    <path fill-rule="evenodd" clip-rule="evenodd"
        d="M123.39 22.1942C123.29 24.9609 123.179 27.792 122.204 30.3623C121.23 32.932 119.205 35.2326 116.621 35.6678C114.37 36.0461 111.954 34.8373 110.801 32.7552C109.894 31.1151 109.768 29.1359 109.69 27.2369C109.385 19.7578 109.492 12.2603 110.012 4.79446C110.055 4.19894 110.253 3.43353 110.816 3.40448C111.439 3.37227 112.293 4.25641 112.307 4.91698C112.45 11.7305 112.592 18.5434 112.734 25.3569C112.771 27.1258 112.821 28.9553 113.539 30.5531C114.256 32.1514 115.203 33.46 116.859 33.2181C118.118 33.0343 118.524 31.9955 119.081 30.7861C119.639 29.5767 119.793 28.2082 119.892 26.8662C120.415 19.8007 119.646 12.6525 120.55 5.62997C120.629 5.01297 121.403 4.31514 121.914 4.00885C122.519 3.64572 123.327 4.08337 123.655 4.73194C123.984 5.37989 123.966 6.1554 123.94 6.89049C123.756 11.9919 123.574 17.0928 123.39 22.1942Z"
        fill="#007398" />
    <path fill-rule="evenodd" clip-rule="evenodd"
        d="M95.648 39.0012C94.6441 39.4215 94.1066 38.8352 93.4895 37.9439C92.8718 37.0533 92.7018 35.9397 92.5661 34.8664C91.2186 24.1816 91.6916 13.3619 92.1666 2.6041C92.2086 1.63849 91.7512 0.447808 92.6796 0.158821C93.3317 -0.0440255 94.0501 0.356805 94.4244 0.924359C94.7987 1.49191 94.9044 2.18729 94.9918 2.85974C95.5718 7.33418 95.7061 11.8649 95.3913 16.365C95.3423 17.0715 96.3498 17.2646 97.0592 17.1938C98.4374 17.0569 99.8156 16.9194 101.194 16.7825C101.645 16.7374 102.23 16.5498 102.21 16.1003C102.005 11.3932 102.067 6.67423 102.397 1.97333C102.454 1.1668 102.694 0.155348 103.496 0.0150224C104.336 -0.13225 104.913 0.831967 105.124 1.65238C105.589 3.47036 105.572 5.37031 105.57 7.24595C105.56 16.6366 106.001 26.0266 106.892 35.375C106.968 36.1752 107.045 37.0054 106.777 37.764C106.508 38.5219 105.79 39.1874 104.981 39.1234C103.724 39.0227 103.253 37.4562 103.113 36.21C102.538 31.1325 102.191 26.0294 102.075 20.9207C102.065 20.4449 101.413 20.3178 100.934 20.34C99.3581 20.4108 97.7825 20.4824 96.207 20.5526C96.0391 20.5602 95.8488 20.579 95.7453 20.7116C95.669 20.8096 95.6641 20.945 95.6634 21.0694C95.6264 25.6015 96.0083 30.1357 96.8038 34.5983C97.092 36.219 97.1746 38.3607 95.648 39.0012Z"
        fill="#007398" />
    <path fill-rule="evenodd" clip-rule="evenodd"
        d="M17.6373 33.1131C17.5358 34.6939 16.9616 36.7464 15.3654 36.7759C14.4483 36.7923 13.6726 36.0132 13.3903 35.1471C13.1081 34.281 13.2067 33.3438 13.3034 32.4387C14.1908 24.1375 14.6574 15.7918 14.7002 7.44402C13.5421 9.19806 12.3841 10.9528 11.2268 12.7068C10.7934 13.3627 10.3083 14.061 9.56157 14.3171C8.55332 14.6635 7.44776 14.0624 6.73073 13.2792C6.01371 12.4966 5.52373 11.5238 4.76667 10.7789C4.68524 10.7001 4.59552 10.62 4.48304 10.6016C4.14695 10.5461 4.00824 11.013 4.00962 11.3506C4.04067 19.5484 3.91783 27.7462 3.64041 35.9385C3.61211 36.7875 3.5645 37.6892 3.0759 38.3861C2.5873 39.0838 1.48657 39.4254 0.860636 38.8455C0.418274 38.4347 0.381008 37.7631 0.374106 37.162C0.249886 26.0401 0.124976 14.9182 6.54853e-05 3.79697C-0.00959609 2.95008 1.0518 2.42428 1.87855 2.63377C2.70531 2.84327 3.31468 3.51901 3.87022 4.1612C5.09379 5.57428 6.31735 6.98737 7.54092 8.40046C7.99916 8.92968 8.95151 9.42125 9.26206 8.79481C10.5829 6.14048 12.2427 3.65114 14.1902 1.40828C14.9534 0.52852 16.1459 -0.388206 17.1714 0.171141C17.6062 0.408025 17.8726 0.863307 18.0624 1.31859C18.6952 2.83848 18.6918 4.53432 18.6711 6.1795C18.5572 15.164 18.2128 24.145 17.6373 33.1131Z"
        fill="#007398" />
    <path fill-rule="evenodd" clip-rule="evenodd"
        d="M84.9538 5.71095C84.9688 4.97374 84.9916 4.2071 85.3298 3.55231C85.668 2.89752 86.4233 2.39581 87.131 2.59793C88.1585 2.89164 88.3237 4.26008 88.2871 5.32959C87.962 14.7949 87.6376 24.2608 87.3131 33.7261C87.2831 34.5955 87.2204 35.5492 86.6211 36.1785C86.0225 36.8084 84.7005 36.7162 84.5294 35.8632C82.9737 28.1366 81.418 20.4093 79.863 12.682C79.3055 12.8403 79.2336 13.5919 79.2741 14.1715C79.6932 20.1974 79.9864 26.233 80.1528 32.2713C80.1705 32.9287 80.1829 33.6084 79.9309 34.2154C79.6782 34.8218 79.0848 35.3379 78.4307 35.283C77.2895 35.1881 76.9559 33.6908 76.9285 32.5434C76.7712 25.9321 76.6138 19.3195 76.4552 12.7075C76.3912 9.99159 76.3272 7.26124 76.7007 4.57014C76.7881 3.94544 77.0414 3.18011 77.6675 3.11273C78.287 3.04667 78.6964 3.72566 78.9314 4.30325C81.512 10.6307 83.0501 17.327 84.5777 23.9887C84.7031 17.8961 84.8291 11.8035 84.9538 5.71095Z"
        fill="#007398" />
    <path fill-rule="evenodd" clip-rule="evenodd"
        d="M67.0346 8.6734C66.7562 15.3777 66.4778 22.0813 66.1994 28.785C66.1708 29.4742 66.1422 30.1707 66.2909 30.8474C66.4712 31.6666 67.2053 32.5715 68.1064 32.3729C68.905 32.1975 69.1724 31.3144 69.2948 30.5823C70.593 22.8161 71.8569 14.6753 68.9343 7.27582C68.7387 6.78116 67.8742 6.79369 67.4859 7.18612C67.0976 7.57789 67.0566 8.14906 67.0346 8.6734ZM64.3063 8.57999C64.4631 6.50044 65.0822 3.9071 67.3439 3.45993C68.5161 3.22777 69.755 3.73892 70.5756 4.52708C71.3969 5.3159 71.868 6.34545 72.2453 7.3717C74.6601 13.9454 73.8615 21.0791 73.0365 27.9634C72.8505 29.514 72.66 31.0831 72.0643 32.5486C71.5478 33.8189 70.6335 35.0615 69.2275 35.5403C67.0574 36.2783 64.5782 34.8319 63.6067 32.9351C62.6352 31.0382 62.7736 28.8518 62.9312 26.7683C63.3891 20.7058 63.8477 14.6426 64.3063 8.57999Z"
        fill="#007398" />
    <path fill-rule="evenodd" clip-rule="evenodd"
        d="M35.649 32.707C36.5374 31.7707 36.5802 30.2693 36.4538 28.9441C36.2074 26.3545 35.5347 23.8125 34.4765 21.468C33.3666 19.0104 31.8463 16.7858 30.7077 14.3432C29.569 11.9007 28.8146 9.104 29.3941 6.44694C29.5926 5.53447 29.973 4.622 30.6687 4.05068C31.4921 3.37518 32.6301 3.28666 33.6449 3.52022C35.5571 3.9608 37.2382 5.54945 37.7252 7.57051C37.8931 8.2678 37.895 9.09038 37.4316 9.61335C36.9682 10.1363 35.9438 10.0131 35.8175 9.30624C35.5673 7.90689 35.012 6.19227 33.6825 6.0588C32.7379 5.96415 31.8922 6.84666 31.6701 7.83063C31.4474 8.8146 31.7097 9.84964 32.0658 10.7873C33.0979 13.5036 34.8984 15.793 36.3166 18.3036C37.9677 21.2269 39.1064 24.4785 39.6559 27.841C39.9661 29.7374 40.0784 31.7496 39.3942 33.5303C38.3954 36.1295 35.6164 37.8019 33.0149 37.3709C30.4128 36.9391 28.2415 34.4455 28.0289 31.6448C27.9287 30.3224 28.3506 28.8059 29.4752 28.238C30.5991 27.6701 32.256 28.8352 31.8271 30.082C31.4653 31.132 31.8705 32.4217 32.752 33.0278C33.634 33.6331 34.9029 33.4929 35.649 32.707Z"
        fill="#007398" />
    <path fill-rule="evenodd" clip-rule="evenodd"
        d="M44.0861 14.429C43.0322 12.4054 42.5456 10.1171 42.6899 7.86269C42.7617 6.75025 43.0445 5.54608 43.9626 4.85349C44.6076 4.36592 45.4746 4.21509 46.2969 4.26249C48.5517 4.39239 50.6189 6.03673 51.1539 8.12495C51.3079 8.72519 51.3189 9.42824 50.8809 9.88504C50.4435 10.3412 49.4523 10.2519 49.3262 9.64617C49.1153 8.63962 48.7128 7.57519 47.7986 7.03036C46.8838 6.48614 45.3769 6.8389 45.1996 7.85161C44.5914 11.3244 47.5909 14.2812 49.5403 17.2738C50.835 19.2623 51.7175 21.4706 52.4201 23.7121C53.3511 26.6825 53.8907 30.1688 51.9446 32.6553C50.4966 34.5053 47.765 35.3407 45.4552 34.6383C43.146 33.9365 41.4289 31.7485 41.3772 29.4424C41.3565 28.5374 41.6055 27.5715 42.3114 26.9644C43.0179 26.3581 44.2531 26.2768 44.8703 26.9663C45.712 27.907 44.9693 29.4744 45.6506 30.5259C46.4063 31.6919 48.4702 31.3262 49.255 30.178C50.0405 29.0299 49.9059 27.5364 49.6574 26.1869C49.233 23.8758 48.5511 21.5857 47.3703 19.5264C46.3668 17.7762 45.0165 16.2156 44.0861 14.429Z"
        fill="#007398" />
    <path fill-rule="evenodd" clip-rule="evenodd"
        d="M57.7821 10.2959C58.3807 10.051 59.1339 10.3642 59.4869 10.8369C59.8399 11.3097 59.8948 11.8914 59.9364 12.4482C60.2236 16.2806 60.3279 20.1228 60.2502 23.9631C60.222 25.3215 60.1718 26.68 60.1208 28.0378C60.0588 29.6976 59.9976 31.3574 59.9356 33.0172C59.8933 34.1432 59.5144 35.5989 58.1768 35.7289C57.3671 35.8076 56.6163 35.2752 56.3033 34.6449C55.9911 34.0152 56.017 33.3087 56.0476 32.6272C56.3575 25.724 56.6673 18.8208 56.978 11.9176C57.0055 11.3011 57.12 10.5664 57.7821 10.2959Z"
        fill="#007398" />
    <path fill-rule="evenodd" clip-rule="evenodd"
        d="M55.3086 4.45781C55.4148 4.09227 55.5777 3.73784 55.8189 3.43831C56.5007 2.59186 57.8191 2.31109 58.8182 2.77532C59.818 3.23886 60.4158 4.38554 60.2386 5.44465C60.0613 6.50446 59.1426 7.40026 58.056 7.61083C57.1301 7.78944 56.083 7.45377 55.5598 6.6928C55.117 6.04927 55.0918 5.20211 55.3086 4.45781Z"
        fill="#007398" />
    <path fill-rule="evenodd" clip-rule="evenodd"
        d="M23.8251 10.2959C24.4237 10.051 25.1768 10.3642 25.5299 10.8369C25.8829 11.3097 25.9378 11.8914 25.9794 12.4482C26.2665 16.2806 26.3709 20.1228 26.2932 23.9631C26.265 25.3215 26.2147 26.68 26.1638 28.0378C26.1018 29.6976 26.0406 31.3574 25.9786 33.0172C25.9362 34.1432 25.5573 35.5989 24.2197 35.7289C23.4101 35.8076 22.6593 35.2752 22.3463 34.6449C22.0341 34.0152 22.0599 33.3087 22.0905 32.6272C22.4004 25.724 22.7103 18.8208 23.021 11.9176C23.0484 11.3011 23.163 10.5664 23.8251 10.2959Z"
        fill="#007398" />
    <path fill-rule="evenodd" clip-rule="evenodd"
        d="M21.3623 4.45781C21.4685 4.09227 21.6314 3.73784 21.8726 3.43831C22.5544 2.59186 23.8729 2.31109 24.8719 2.77532C25.8717 3.23886 26.4695 4.38554 26.2923 5.44465C26.115 6.50446 25.1963 7.40026 24.1097 7.61083C23.1839 7.78944 22.1367 7.45377 21.6135 6.6928C21.1707 6.04927 21.1455 5.20211 21.3623 4.45781Z"
        fill="#007398" />
</svg>
